<svg width="357" height="207" viewBox="0 0 357 207" fill="none" xmlns="http://www.w3.org/2000/svg">
<path fill-rule="evenodd" clip-rule="evenodd" d="M105.355 96.6566L99.6762 114.135C99.4606 114.851 99.1063 115.516 98.6337 116.094C98.1611 116.673 97.5793 117.152 96.9217 117.505C96.264 117.858 95.5433 118.078 94.8008 118.153C94.0583 118.227 93.3085 118.155 92.5942 117.939L55.6171 105.924C54.9125 105.679 54.2631 105.297 53.7062 104.8C53.1492 104.304 52.6956 103.702 52.3711 103.03C52.0467 102.357 51.8578 101.628 51.8153 100.882C51.7728 100.137 51.8774 99.3899 52.1233 98.6846L57.8026 81.2057C58.2383 79.7607 59.2292 78.5474 60.5576 77.8325C61.886 77.1175 63.4434 76.9594 64.8876 77.3927L101.865 89.4073C103.288 89.9056 104.455 90.9489 105.109 92.3082C105.764 93.6674 105.852 95.2314 105.355 96.6566V96.6566Z" fill="#1F9DD8"/>
<path fill-rule="evenodd" clip-rule="evenodd" d="M139.01 59.9922L124.141 70.7948C123.546 71.2465 122.869 71.5768 122.146 71.7668C121.424 71.9568 120.672 72.0026 119.932 71.9018C119.192 71.801 118.48 71.5555 117.836 71.1793C117.191 70.8031 116.627 70.3035 116.176 69.7092L93.323 38.2546C92.8972 37.6419 92.5963 36.9513 92.4377 36.2221C92.279 35.4929 92.2656 34.7395 92.3983 34.0049C92.531 33.2703 92.8072 32.5688 93.211 31.9407C93.6148 31.3125 94.1384 30.7699 94.7519 30.3439L109.62 19.5414C110.822 18.6284 112.337 18.2293 113.832 18.4317C115.327 18.6341 116.68 19.4216 117.593 20.6211L140.447 52.0756C141.305 53.3152 141.636 54.8453 141.366 56.3296C141.097 57.814 140.249 59.1313 139.01 59.9922V59.9922Z" fill="#78B942"/>
<path fill-rule="evenodd" clip-rule="evenodd" d="M187.787 50.1116H169.409C168.662 50.1276 167.919 49.9964 167.224 49.7255C166.528 49.4547 165.892 49.0496 165.353 48.5332C164.814 48.0169 164.382 47.3995 164.081 46.7164C163.781 46.0332 163.619 45.2976 163.603 44.5516V5.67165C163.619 4.92569 163.781 4.19011 164.081 3.50694C164.382 2.82376 164.814 2.20638 165.353 1.69005C165.892 1.17372 166.528 0.768576 167.224 0.497749C167.919 0.226921 168.662 0.0957235 169.409 0.11165H187.787C189.296 0.0794643 190.756 0.646944 191.847 1.68944C192.937 2.73194 193.569 4.16421 193.603 5.67165V44.5516C193.569 46.0591 192.937 47.4914 191.847 48.5339C190.756 49.5764 189.296 50.1438 187.787 50.1116V50.1116Z" fill="#FFC807"/>
<path fill-rule="evenodd" clip-rule="evenodd" d="M233.057 70.7888L218.188 59.9862C217.575 59.5602 217.051 59.0176 216.648 58.3895C216.244 57.7613 215.968 57.0599 215.835 56.3253C215.702 55.5906 215.716 54.8372 215.874 54.108C216.033 53.3789 216.334 52.6882 216.76 52.0755L239.613 20.6209C240.064 20.0266 240.628 19.5271 241.272 19.1509C241.917 18.7747 242.629 18.5291 243.369 18.4283C244.108 18.3275 244.861 18.3734 245.583 18.5633C246.305 18.7533 246.983 19.0836 247.578 19.5354L262.446 30.3379C263.686 31.1988 264.534 32.5162 264.803 34.0005C265.072 35.4849 264.742 37.0149 263.883 38.2545L241.03 69.7091C240.116 70.9086 238.763 71.696 237.269 71.8985C235.774 72.1009 234.259 71.7018 233.057 70.7888V70.7888Z" fill="#EA7723"/>
<path fill-rule="evenodd" clip-rule="evenodd" d="M257.527 114.126L251.848 96.6469C251.602 95.9417 251.497 95.195 251.54 94.4494C251.582 93.7038 251.771 92.9741 252.095 92.3017C252.42 91.6294 252.873 91.0277 253.43 90.5311C253.987 90.0344 254.637 89.6525 255.341 89.4071L292.318 77.3925C293.033 77.1769 293.783 77.1042 294.525 77.1786C295.268 77.2531 295.988 77.4732 296.646 77.8264C297.304 78.1796 297.885 78.659 298.358 79.2372C298.831 79.8154 299.185 80.481 299.4 81.1961L305.08 98.6749C305.577 100.1 305.488 101.664 304.834 103.023C304.179 104.383 303.012 105.426 301.589 105.924L264.612 117.939C263.168 118.372 261.61 118.214 260.282 117.499C258.953 116.784 257.963 115.571 257.527 114.126V114.126Z" fill="#EC1C66"/>
<path fill-rule="evenodd" clip-rule="evenodd" d="M137.021 87.3679C138.589 86.049 140.929 86.2511 142.248 87.8192L178.654 131.106L201.92 103.08C203.228 101.503 205.567 101.286 207.144 102.595C208.721 103.903 208.938 106.242 207.629 107.819L181.527 139.261C180.825 140.107 179.784 140.598 178.685 140.602C177.585 140.605 176.541 140.121 175.834 139.28L136.569 92.5952C135.25 91.0271 135.452 88.6867 137.021 87.3679Z" fill="#424242"/>
<path d="M7.51863 171.016H3.71063V177.4H7.51863V200.752H14.9666V177.4H19.3906V171.016H14.9666V160.04H7.51863V171.016Z" fill="#424242"/>
<path d="M22.6837 200.752H30.1317V171.016H22.6837V200.752ZM26.3797 158.752C23.8037 158.752 21.6197 160.712 21.6197 163.288C21.6197 166.032 23.6357 168.44 26.3797 168.44C29.0117 168.44 31.1397 166.312 31.1397 163.68C31.1397 160.992 29.0677 158.752 26.3797 158.752Z" fill="#424242"/>
<path d="M63.4088 186.08C63.4088 179.976 66.0968 177.064 69.8488 177.064C73.2088 177.064 74.9448 179.472 74.9448 184.344V200.752H82.3928V183.336C82.3928 179.416 82.1688 176.168 80.2088 173.704C78.5288 171.576 75.5608 170.232 72.2568 170.232C67.7768 170.232 65.0328 172.08 62.2888 175.552C60.4408 171.968 57.3048 170.232 53.6088 170.232C50.0808 170.232 46.8328 171.688 44.3128 174.432V171.016H36.8648V200.752H44.3128V186.192C44.3128 180.088 47.0008 177.064 50.6968 177.064C54.8408 177.064 55.9608 180.592 55.9608 186.36V200.752H63.4088V186.08Z" fill="#424242"/>
<path d="M111.145 192.016C109.073 194.032 106.945 194.928 103.753 194.928C99.4969 194.928 96.1369 192.464 95.4089 188.04H119.377C119.377 187.368 119.433 187.032 119.433 186.36C119.433 176.952 113.049 170.232 103.641 170.232C94.0649 170.232 88.1849 177.736 88.1849 185.856C88.1849 194.592 94.2889 201.536 103.753 201.536C110.025 201.536 114.225 199.52 117.417 194.984L111.145 192.016ZM95.7449 182.16C97.2009 178.408 100.057 176.56 103.753 176.56C107.729 176.56 110.921 178.688 111.929 182.16H95.7449Z" fill="#424242"/>
<path d="M147.357 200.752H154.805V171.016H147.357V174.264C144.669 171.576 141.589 170.232 138.005 170.232C130.277 170.232 124.005 176.616 124.005 185.912C124.005 195.04 130.613 201.536 138.173 201.536C141.925 201.536 144.725 200.192 147.357 197.616V200.752ZM139.517 177.064C144.221 177.064 147.693 180.592 147.693 185.8C147.693 191.232 144.109 194.704 139.517 194.704C134.869 194.704 131.509 190.952 131.509 185.856C131.509 180.984 134.589 177.064 139.517 177.064Z" fill="#787878"/>
<path d="M169.766 171.016H162.318V200.752H169.766V188.096C169.766 185.016 169.71 182.328 171.222 179.92C172.398 178.072 174.19 177.064 176.262 177.064C180.798 177.064 181.302 180.816 181.302 186.696V200.752H188.75V180.424C188.75 174.04 184.102 170.232 178.558 170.232C175.254 170.232 172.622 171.632 169.766 174.04V171.016Z" fill="#787878"/>
<path d="M217.904 200.752H225.352V159.536H217.904V174.264C215.216 171.576 212.136 170.232 208.552 170.232C200.824 170.232 194.552 176.616 194.552 185.912C194.552 195.04 201.16 201.536 208.72 201.536C212.472 201.536 215.272 200.192 217.904 197.616V200.752ZM210.064 177.064C214.768 177.064 218.24 180.592 218.24 185.8C218.24 191.232 214.656 194.704 210.064 194.704C205.416 194.704 202.056 190.952 202.056 185.856C202.056 180.984 205.136 177.064 210.064 177.064Z" fill="#787878"/>
<path d="M254.873 200.752H262.321V159.536H254.873V174.264C252.185 171.576 249.105 170.232 245.521 170.232C237.793 170.232 231.521 176.616 231.521 185.912C231.521 195.04 238.129 201.536 245.689 201.536C249.441 201.536 252.241 200.192 254.873 197.616V200.752ZM247.033 177.064C251.737 177.064 255.209 180.592 255.209 185.8C255.209 191.232 251.625 194.704 247.033 194.704C242.385 194.704 239.025 190.952 239.025 185.856C239.025 180.984 242.105 177.064 247.033 177.064Z" fill="#424242"/>
<path d="M291.842 200.752H299.29V171.016H291.842V174.264C289.154 171.576 286.073 170.232 282.489 170.232C274.761 170.232 268.489 176.616 268.489 185.912C268.489 195.04 275.097 201.536 282.657 201.536C286.409 201.536 289.21 200.192 291.842 197.616V200.752ZM284.002 177.064C288.706 177.064 292.178 180.592 292.178 185.8C292.178 191.232 288.594 194.704 284.002 194.704C279.354 194.704 275.993 190.952 275.993 185.856C275.993 180.984 279.074 177.064 284.002 177.064Z" fill="#424242"/>
<path d="M307.698 171.016H303.89V177.4H307.698V200.752H315.146V177.4H319.57V171.016H315.146V160.04H307.698V171.016Z" fill="#424242"/>
<path d="M345.207 192.016C343.135 194.032 341.007 194.928 337.815 194.928C333.559 194.928 330.199 192.464 329.471 188.04H353.439C353.439 187.368 353.495 187.032 353.495 186.36C353.495 176.952 347.111 170.232 337.703 170.232C328.127 170.232 322.247 177.736 322.247 185.856C322.247 194.592 328.351 201.536 337.815 201.536C344.087 201.536 348.287 199.52 351.479 194.984L345.207 192.016ZM329.807 182.16C331.263 178.408 334.119 176.56 337.815 176.56C341.791 176.56 344.983 178.688 345.991 182.16H329.807Z" fill="#424242"/>
</svg>
